<?xml version="1.0" standalone="no"?>
<!DOCTYPE svg PUBLIC "-//W3C//DTD SVG 20010904//EN"
 "http://www.w3.org/TR/2001/REC-SVG-20010904/DTD/svg10.dtd">
<svg version="1.0" xmlns="http://www.w3.org/2000/svg"
 width="16.000000pt" height="16.000000pt" viewBox="0 0 16.000000 16.000000"
 preserveAspectRatio="xMidYMid meet">
<metadata>
Created by potrace 1.11, written by Peter Selinger 2001-2013
</metadata>
<g transform="translate(0.000000,16.000000) scale(0.008333,-0.008333)"
fill="#000000" stroke="none">
<path d="M965 1900 c-895 -6 -826 0 -898 -79 -55 -61 -67 -99 -67 -212 l0 -99
275 0 275 0 0 -55 0 -55 -276 0 -275 0 3 -22 3 -23 273 -3 272 -2 0 -50 0 -50
-275 0 -275 0 0 -25 0 -25 275 0 275 0 0 -50 0 -50 -272 -2 -273 -3 -3 -22 -3
-23 273 -2 273 -3 0 -50 0 -50 -273 -3 -272 -2 0 -25 0 -25 480 0 480 0 0 -50
0 -50 -480 0 -480 0 0 -25 0 -25 478 -2 477 -3 3 -47 3 -48 -478 -2 -478 -3
-3 -28 -3 -27 90 0 91 0 0 -50 0 -50 -90 0 c-89 0 -90 0 -90 -25 0 -25 1 -25
90 -25 l90 0 0 -50 0 -50 -90 0 c-89 0 -90 0 -90 -25 0 -24 2 -24 88 -27 l87
-3 3 -48 3 -47 -78 0 c-86 0 -107 -8 -101 -36 3 -17 14 -19 91 -22 l88 -3 -4
-47 c-4 -44 -6 -47 -36 -50 -17 -2 -29 -8 -26 -13 9 -13 1682 -12 1690 1 4 7
-62 10 -189 10 l-196 0 0 50 0 50 250 0 250 0 0 30 0 30 -250 0 -250 0 0 45 0
45 250 0 250 0 0 30 0 30 -250 0 -250 0 0 50 0 50 250 0 250 0 0 25 0 25 -250
0 -250 0 0 50 0 50 250 0 250 0 0 30 0 30 -250 0 -250 0 0 50 0 50 250 0 250
0 0 25 0 25 -250 0 -250 0 0 50 0 50 250 0 250 0 0 25 0 25 -251 0 -250 0 3
53 3 52 248 0 247 0 0 28 0 27 -250 0 -250 0 0 50 0 50 250 0 250 0 0 25 0 25
-250 0 -250 0 0 50 0 50 250 0 250 0 0 25 0 25 -250 0 -250 0 0 55 0 55 250 0
250 0 0 25 0 25 -250 0 -250 0 0 50 0 50 250 0 250 0 0 59 c0 44 -5 66 -22 91
-27 40 -85 87 -113 92 -11 1 -380 1 -820 -2z m-11 -1367 l-2 -48 -361 -3 -361
-2 0 50 0 50 363 0 363 0 -2 -47z m0 -156 l1 -47 -362 0 -363 0 0 50 0 50 361
-2 362 -3 1 -48z m416 3 l0 -50 -180 0 -180 0 0 50 0 50 180 0 180 0 0 -50z
m-419 -150 c-1 -25 -4 -46 -5 -47 -1 -1 -162 -3 -357 -3 l-354 -1 -3 36 c-6
69 -29 66 365 63 l358 -3 -4 -45z m417 -7 l-3 -48 -177 -3 -178 -2 0 50 0 50
181 0 180 0 -3 -47z m-416 -153 l-4 -50 -359 0 -359 0 0 50 0 50 363 0 362 0
-3 -50z m418 0 l0 -50 -180 0 -180 0 0 50 0 50 180 0 180 0 0 -50z"/>
</g>
</svg>
